<?xml version="1.0" encoding="utf-8"?>
<!-- Generator: Adobe Illustrator 17.0.0, SVG Export Plug-In . SVG Version: 6.00 Build 0)  -->
<!DOCTYPE svg PUBLIC "-//W3C//DTD SVG 1.1//EN" "http://www.w3.org/Graphics/SVG/1.1/DTD/svg11.dtd">
<svg version="1.1" id="Layer_1" xmlns="http://www.w3.org/2000/svg" xmlns:xlink="http://www.w3.org/1999/xlink" x="0px" y="0px"
	 width="512px" height="512px" viewBox="0 0 512 512" enable-background="new 0 0 512 512" xml:space="preserve">
<path fill="#042440" d="M179.578,214.801c-2.224,2.456-2.036,6.251,0.421,8.475c0.958,0.867,2.171,1.402,3.457,1.525l20.926,2.013
	l-3.826,4.235c-2.221,2.459-2.029,6.253,0.43,8.474c0,0,0,0,0.001,0.001l30.339,27.405l-2.61,3.382l-15.18-13.711
	c-2.459-2.221-6.253-2.029-8.474,0.43l-47.289,52.352c-2.221,2.459-2.028,6.253,0.431,8.474l39.266,35.465
	c2.459,2.22,6.252,2.028,8.473-0.43l47.287-52.356c2.222-2.459,2.029-6.253-0.429-8.474c0,0,0,0-0.001-0.001l-15.18-13.711
	l2.611-3.382l7.145,6.455c2.459,2.221,6.253,2.028,8.474-0.431l1.89-2.092l8.635,7.8c1.103,0.996,2.536,1.547,4.022,1.547
	c0.1,0,0.2,0,0.305-0.008c1.589-0.081,3.081-0.79,4.147-1.97l20.951-23.195c2.221-2.459,2.028-6.253-0.431-8.474l-8.634-7.8
	l1.888-2.091c2.222-2.459,2.029-6.253-0.429-8.474c0,0,0,0-0.001-0.001l-7.145-6.454l2.236-2.467l15.18,13.711
	c2.459,2.22,6.252,2.028,8.473-0.43l47.29-52.346c2.221-2.459,2.029-6.253-0.43-8.474l0.001-0.001l-39.264-35.467
	c-2.459-2.221-6.253-2.028-8.474,0.431l-47.289,52.352c-2.221,2.459-2.028,6.253,0.431,8.474l15.18,13.711l-2.236,2.466
	l-30.34-27.406c-2.459-2.221-6.253-2.029-8.474,0.43l-3.826,4.236l-4.124-20.614c-0.649-3.249-3.81-5.357-7.06-4.708
	c-1.264,0.253-2.413,0.905-3.276,1.862 M196.481,213.994l19.474-21.555l3.532,17.655l-5.083,5.628L196.481,213.994z
	 M227.775,247.545l-14.29-12.906l24.73-27.377l14.289,12.908L227.775,247.545z M250.969,268.496l-14.289-12.907l24.73-27.378
	l14.289,12.908L250.969,268.496z M282.875,259.484l-12.907,14.29l-4.182-3.779l12.907-14.289L282.875,259.484z M301.531,226.849
	l-30.358-27.423l39.243-43.451l30.359,27.422L301.531,226.849z M202.944,338.113l-30.358-27.423l39.243-43.451l30.359,27.422
	L202.944,338.113z"/>
</svg>
