<?xml version="1.0" encoding="utf-8"?>
<!-- Generator: Adobe Illustrator 17.0.0, SVG Export Plug-In . SVG Version: 6.00 Build 0)  -->
<!DOCTYPE svg PUBLIC "-//W3C//DTD SVG 1.1//EN" "http://www.w3.org/Graphics/SVG/1.1/DTD/svg11.dtd">
<svg version="1.1" id="Layer_1" xmlns="http://www.w3.org/2000/svg" xmlns:xlink="http://www.w3.org/1999/xlink" x="0px" y="0px"
	 width="122px" height="122px" viewBox="0 0 122 122" enable-background="new 0 0 122 122" xml:space="preserve">
<path fill="#042440" d="M84.11,84.875c-0.461,0.51-0.422,1.297,0.087,1.758c0.199,0.18,0.45,0.291,0.717,0.316l4.342,0.418
	l-0.794,0.879c-0.461,0.51-0.421,1.297,0.089,1.758c0,0,0,0,0,0l6.295,5.686l-0.542,0.702l-3.15-2.845
	c-0.51-0.461-1.297-0.421-1.758,0.089l-9.812,10.862c-0.461,0.51-0.421,1.297,0.089,1.758l8.147,7.358
	c0.51,0.461,1.297,0.421,1.758-0.089l9.811-10.863c0.461-0.51,0.421-1.297-0.089-1.758c0,0,0,0,0,0l-3.15-2.845l0.542-0.702
	l1.482,1.339c0.51,0.461,1.297,0.421,1.758-0.089l0.392-0.434l1.792,1.618c0.229,0.207,0.526,0.321,0.835,0.321
	c0.021,0,0.042,0,0.063-0.002c0.33-0.017,0.639-0.164,0.86-0.409l4.347-4.813c0.461-0.51,0.421-1.297-0.089-1.758l-1.791-1.618
	l0.392-0.434c0.461-0.51,0.421-1.297-0.089-1.758c0,0,0,0,0,0l-1.482-1.339l0.464-0.512l3.15,2.845
	c0.51,0.461,1.297,0.421,1.758-0.089l9.812-10.861c0.461-0.51,0.421-1.297-0.089-1.758l0,0l-8.147-7.359
	c-0.51-0.461-1.297-0.421-1.758,0.089l-9.812,10.862c-0.461,0.51-0.421,1.297,0.089,1.758l3.15,2.845l-0.464,0.512l-6.295-5.686
	c-0.51-0.461-1.297-0.421-1.758,0.089l-0.794,0.879l-0.856-4.277c-0.135-0.674-0.791-1.111-1.465-0.977
	c-0.262,0.052-0.501,0.188-0.68,0.386 M87.617,84.707l4.041-4.472l0.733,3.663l-1.055,1.168L87.617,84.707z M94.11,91.669
	l-2.965-2.678l5.131-5.68l2.965,2.678L94.11,91.669z M98.923,96.016l-2.965-2.678l5.131-5.681l2.965,2.678L98.923,96.016z
	 M105.543,94.146l-2.678,2.965l-0.868-0.784l2.678-2.965L105.543,94.146z M109.413,87.375l-6.299-5.69l8.142-9.015l6.299,5.69
	L109.413,87.375z M88.958,110.46l-6.299-5.69l8.142-9.015l6.299,5.69L88.958,110.46z"/>
<path fill="#FE765E" d="M36.614,9.499c0.234,0,0.466-0.049,0.68-0.143l0.252-0.109c0.877-0.352,1.302-1.349,0.95-2.226
	c-0.352-0.877-1.349-1.302-2.226-0.95c-0.024,0.01-0.048,0.02-0.071,0.031l-0.269,0.116c-0.867,0.376-1.265,1.384-0.888,2.251
	C35.315,9.095,35.932,9.5,36.614,9.499L36.614,9.499z"/>
<path fill="#FE765E" d="M55.511,115.327l-0.276-0.019c-0.943-0.057-1.754,0.662-1.811,1.605c-0.056,0.927,0.639,1.73,1.564,1.808
	l0.293,0.021c0.039,0.003,0.078,0.004,0.117,0.004c0.945,0.001,1.712-0.765,1.712-1.71
	C57.111,116.134,56.412,115.386,55.511,115.327L55.511,115.327z"/>
<path fill="#FE765E" d="M47.736,5.98c0.117,0,0.233-0.012,0.348-0.036l0.268-0.054c0.926-0.191,1.521-1.096,1.331-2.021
	c-0.189-0.917-1.08-1.512-2-1.335l-0.291,0.059c-0.926,0.19-1.522,1.095-1.331,2.021C46.224,5.409,46.924,5.98,47.736,5.98
	L47.736,5.98z"/>
<path fill="#FE765E" d="M2.567,54.03c0.077,0.011,0.155,0.016,0.232,0.016c0.855-0.001,1.578-0.633,1.693-1.481l0.038-0.272
	c0.133-0.936-0.518-1.802-1.453-1.935s-1.802,0.518-1.935,1.453l0,0l-0.041,0.293C0.974,53.04,1.63,53.902,2.567,54.03L2.567,54.03z
	"/>
<path fill="#FE765E" d="M44.358,113.414l-0.266-0.075c-0.907-0.267-1.858,0.252-2.125,1.158s0.252,1.858,1.158,2.125
	c0.009,0.003,0.019,0.005,0.028,0.008l0.283,0.08c0.913,0.246,1.851-0.295,2.097-1.207
	C45.776,114.602,45.253,113.674,44.358,113.414L44.358,113.414z"/>
<path fill="#FE765E" d="M11.629,28.764c-0.804-0.496-1.858-0.246-2.354,0.559l0,0l-0.153,0.25c-0.497,0.803-0.249,1.858,0.554,2.356
	c0.803,0.497,1.858,0.249,2.356-0.554c0.004-0.007,0.008-0.013,0.012-0.02l0.145-0.236C12.684,30.313,12.433,29.259,11.629,28.764z"
	/>
<path fill="#FE765E" d="M7.264,41.307c0.311-0.892-0.16-1.868-1.052-2.179c-0.88-0.307-1.844,0.147-2.168,1.021l-0.099,0.275
	c-0.317,0.89,0.148,1.869,1.038,2.186c0.89,0.317,1.869-0.148,2.186-1.038l0,0L7.264,41.307z"/>
<path fill="#FE765E" d="M10.033,85.319c-0.431-0.841-1.462-1.174-2.303-0.743c-0.841,0.431-1.173,1.462-0.743,2.303l0.135,0.262
	c0.427,0.843,1.457,1.18,2.3,0.752c0.843-0.427,1.18-1.457,0.752-2.3c-0.005-0.011-0.011-0.021-0.016-0.031L10.033,85.319z"/>
<path fill="#FE765E" d="M16.198,94.813c-0.592-0.737-1.669-0.854-2.406-0.262c-0.737,0.592-0.854,1.669-0.262,2.405l0.185,0.228
	c0.596,0.733,1.674,0.845,2.407,0.248s0.845-1.674,0.249-2.407l0,0L16.198,94.813z"/>
<path fill="#FE765E" d="M24.373,103.035l-0.213-0.174c-0.721-0.61-1.801-0.52-2.411,0.202c-0.61,0.721-0.52,1.801,0.202,2.411
	c0.011,0.009,0.021,0.018,0.032,0.026l0.228,0.188c0.74,0.588,1.816,0.464,2.404-0.276
	C25.192,104.686,25.084,103.631,24.373,103.035L24.373,103.035z"/>
<path fill="#FE765E" d="M33.832,109.256l-0.247-0.129c-0.837-0.439-1.871-0.117-2.31,0.72c-0.439,0.837-0.117,1.871,0.72,2.31l0,0
	l0.26,0.135c0.832,0.447,1.87,0.135,2.317-0.698c0.447-0.832,0.135-1.87-0.698-2.317C33.86,109.27,33.846,109.263,33.832,109.256z"
	/>
<path fill="#FE765E" d="M16.598,19.791l-0.202,0.214c-0.646,0.69-0.61,1.773,0.08,2.419c0.69,0.646,1.773,0.61,2.419-0.08l0.189-0.2
	c0.65-0.687,0.62-1.77-0.067-2.42C18.331,19.074,17.248,19.104,16.598,19.791L16.598,19.791z"/>
<path fill="#FE765E" d="M4.104,63.881l-0.018-0.275c-0.065-0.943-0.881-1.655-1.824-1.59c-0.934,0.064-1.643,0.866-1.592,1.801
	l0.019,0.295c0.06,0.898,0.805,1.596,1.705,1.597c0.039,0,0.078,0,0.117-0.004C3.455,65.64,4.168,64.825,4.104,63.881
	C4.104,63.881,4.104,63.881,4.104,63.881L4.104,63.881z"/>
<path fill="#FE765E" d="M59.346,4.827l0.275,0.021h0.011c0.956-0.015,1.719-0.801,1.705-1.757c-0.014-0.932-0.763-1.685-1.695-1.705
	h-0.295c-0.945,0-1.711,0.766-1.711,1.711C57.634,4.045,58.398,4.817,59.346,4.827z"/>
<path fill="#FE765E" d="M66.827,114.948l-0.275,0.036c-0.937,0.123-1.597,0.982-1.474,1.92c0.123,0.937,0.982,1.597,1.92,1.474
	l0.291-0.039c0.937-0.121,1.599-0.979,1.477-1.916c-0.121-0.937-0.979-1.599-1.916-1.477
	C66.842,114.947,66.834,114.948,66.827,114.948L66.827,114.948z"/>
<path fill="#FE765E" d="M5.937,74.771c-0.249-0.912-1.19-1.449-2.101-1.2c-0.912,0.249-1.449,1.19-1.2,2.101l0.079,0.285
	c0.241,0.914,1.177,1.459,2.091,1.218c0.914-0.241,1.459-1.177,1.218-2.091c-0.005-0.017-0.009-0.034-0.014-0.05L5.937,74.771z"/>
<path fill="#FE765E" d="M81.387,9.39l0.254,0.112c0.864,0.382,1.875-0.008,2.257-0.872s-0.008-1.875-0.872-2.257l-0.27-0.119
	c-0.866-0.378-1.875,0.018-2.253,0.884S80.52,9.012,81.387,9.39L81.387,9.39z"/>
<path fill="#FE765E" d="M70.604,5.961l0.272,0.057c0.924,0.197,1.833-0.393,2.03-1.317c0.197-0.924-0.393-1.833-1.317-2.03
	l-0.285-0.06c-0.927-0.186-1.829,0.414-2.015,1.34c-0.185,0.918,0.402,1.813,1.318,2.01H70.604z"/>
<path fill="#FE765E" d="M77.825,112.279l-0.262,0.092c-0.896,0.301-1.377,1.272-1.076,2.168c0.301,0.896,1.272,1.377,2.168,1.076
	c0.012-0.004,0.025-0.008,0.036-0.013l0.276-0.097c0.897-0.297,1.384-1.264,1.087-2.162c-0.297-0.897-1.264-1.384-2.162-1.087
	c-0.022,0.007-0.044,0.015-0.066,0.023L77.825,112.279L77.825,112.279z"/>
<path fill="#FE765E" d="M27.432,14.904l0.224-0.157c0.775-0.54,0.966-1.607,0.426-2.382c-0.54-0.775-1.607-0.966-2.382-0.426l0,0
	l-0.243,0.171c-0.775,0.541-0.964,1.608-0.423,2.383c0.541,0.775,1.608,0.964,2.383,0.423
	C27.422,14.912,27.427,14.909,27.432,14.904L27.432,14.904L27.432,14.904z"/>
<path fill="#042440" d="M83.754,60.131c0-13.503-10.947-24.45-24.45-24.45s-24.45,10.947-24.45,24.45s10.947,24.45,24.45,24.45l0,0
	C72.801,84.565,83.738,73.628,83.754,60.131z M74.134,44.246l0.105-0.145c5.793,5.387,8.23,13.479,6.376,21.169l-0.443,0.02
	c-1.972,0.082-3.724,1.284-4.511,3.095l-0.144,0.358c-0.286,0.665-0.935,1.101-1.659,1.113h-2.252l-0.082-0.848
	c-0.166-1.574-1.039-2.988-2.372-3.841c-0.032-0.021-0.083-0.067-0.083-0.105v-0.958c0.013-0.179,0.1-0.345,0.24-0.457l4.101-3.607
	c1.548-1.368,2.159-3.51,1.566-5.489c-0.615-2.031-2.369-3.508-4.475-3.768l-0.41-0.051c-0.154-0.019-0.298-0.085-0.412-0.19
	l0.797-1.361c1.012-1.728,2.204-3.343,3.559-4.818C74.072,44.327,74.104,44.287,74.134,44.246L74.134,44.246z M48.445,41.094
	l2.346,1.764c0.261,0.196,0.533,0.377,0.815,0.541c0.754,0.443,1.404,1.045,1.904,1.763l1.573,2.268
	c0.301,0.432,0.287,1.01-0.036,1.426l-0.729,0.946c-0.09,0.116-0.235,0.176-0.38,0.158l-0.828-0.105
	c-1.697-0.218-3.36,0.603-4.219,2.083c-0.096,0.145-0.268,0.22-0.439,0.192l-1.893-0.24c-1.635-0.214-3.25,0.516-4.17,1.885
	c-0.895,1.321-0.922,3.046-0.068,4.394l1.262,1.993c1.075,1.685,3.264,2.26,5.03,1.323l1.299-0.696
	c0.349-0.186,0.77-0.176,1.109,0.027l2.466,1.48c0.305,0.183,0.656,0.275,1.012,0.266c0.732,0.013,1.412,0.383,1.82,0.991
	l1.206,1.682c0.105,0.148,0.218,0.29,0.333,0.427l1.27,1.494l-2.014,1.547c-0.843,0.645-1.464,1.538-1.775,2.553l-0.798,2.585
	c-0.014,0.046-0.037,0.088-0.067,0.124l-0.776,0.933c-0.316,0.378-0.583,0.795-0.795,1.24l-0.341-2.048
	c-0.125-0.747-0.43-1.452-0.889-2.054l-2.677-3.511c-0.144-0.188-0.25-0.401-0.312-0.629l-0.884-3.188
	c-0.437-1.562-1.661-2.781-3.225-3.212l-0.193-0.053c-0.19-0.052-0.365-0.15-0.509-0.285l-1.648-1.551
	c-0.173-0.163-0.321-0.349-0.441-0.554c-0.858-1.471-2.413-2.398-4.115-2.452C38.745,50.074,42.702,44.378,48.445,41.094
	L48.445,41.094z M59.304,82.052c-12.101-0.014-21.907-9.82-21.921-21.921c0-0.335,0.009-0.669,0.024-1
	c0.896-0.038,1.741,0.423,2.192,1.198c0.242,0.414,0.542,0.792,0.891,1.121l1.648,1.551c0.446,0.419,0.987,0.722,1.577,0.883
	l0.193,0.053c0.705,0.194,1.257,0.743,1.454,1.447l0.884,3.188c0.148,0.539,0.399,1.044,0.738,1.488l2.677,3.51
	c0.209,0.275,0.348,0.596,0.405,0.936l0.728,4.366c0.143,0.918,0.934,1.594,1.863,1.593c0.25,0,0.497-0.05,0.727-0.146
	c0.853-0.356,1.439-1.156,1.521-2.076c0.064-0.638,0.322-1.241,0.738-1.728l0.776-0.933c0.244-0.293,0.427-0.632,0.539-0.996
	l0.797-2.586c0.157-0.514,0.472-0.965,0.898-1.292l2.372-1.821c0.43-0.325,0.718-0.802,0.806-1.333
	c0.096-0.599-0.075-1.211-0.468-1.673l-1.579-1.858c-0.071-0.084-0.14-0.171-0.204-0.261l-1.207-1.682
	c-0.855-1.234-2.242-1.992-3.742-2.046l-2.31-1.386c-1.103-0.658-2.47-0.691-3.604-0.088l-1.299,0.696
	c-0.596,0.316-1.335,0.122-1.698-0.447l-1.263-1.993c-0.316-0.498-0.306-1.135,0.025-1.623c0.387-0.577,1.068-0.884,1.756-0.794
	l1.894,0.24c1.179,0.159,2.339-0.404,2.944-1.429c0.349-0.6,1.024-0.933,1.713-0.845l0.828,0.105
	c1.036,0.13,2.064-0.297,2.704-1.123L57.05,50.4c0.998-1.288,1.043-3.075,0.111-4.412l-1.573-2.268
	c-0.71-1.02-1.633-1.874-2.705-2.504c-0.198-0.116-0.39-0.243-0.573-0.381l-1.315-0.989c7.071-2.9,15.142-1.901,21.293,2.635
	l-0.165,0.23c-1.455,1.592-2.738,3.333-3.827,5.195l-0.862,1.474c-0.504,0.889-0.39,2,0.285,2.767
	c0.531,0.607,1.267,0.998,2.068,1.096l0.412,0.051c1.113,0.138,2.041,0.918,2.367,1.992c0.31,1.03-0.007,2.146-0.812,2.86
	l-4.117,3.607c-0.684,0.592-1.083,1.448-1.096,2.353v0.958c0.012,0.901,0.479,1.734,1.241,2.214c0.68,0.432,1.126,1.15,1.21,1.951
	l0.104,0.987c0.119,1.224,1.143,2.16,2.372,2.17h2.391c1.727-0.013,3.284-1.042,3.973-2.626l0.144-0.343
	c0.334-0.77,1.013-1.337,1.831-1.526C76.574,76.409,68.415,82.044,59.304,82.052L59.304,82.052z"/>
</svg>
